<svg version="1.2" xmlns="http://www.w3.org/2000/svg" viewBox="0 0 206 79" width="206" height="79">
	<title>2</title>
	<style>
		.s0 { fill: #404fd8 } 
		.s1 { fill: #ffffff } 
	</style>
	<g>
		<g>
			<g>
				<path class="s0" d="m27.1 51.2q-0.8 0-1.4-0.7-0.6-0.5-0.6-1.6l-0.1-36.7q0-0.8 0.7-1.6 0.6-0.7 1.3-0.7l22.4 0.1q1 0 1.7 0.6 0.6 0.6 0.6 1.4v8.7q0 0.7-0.7 1.3-0.6 0.5-1.6 0.6l-10.9 0.6 0.1 2.9h6.3q0.7 0 1.3 0.4 0.6 0.4 0.5 1.1l-0.3 6.2q0 0.6-0.6 1-0.5 0.4-1.2 0.5l-5.8 0.3 0.1 2.3 10.5 0.5q1 0.1 1.6 0.6 0.7 0.6 0.7 1.3v8.7q0 0.8-0.6 1.4-0.7 0.6-1.7 0.6l-15.4 0.2q-0.2 0-0.3 0-0.2 0-0.3-0.1z"/>
			</g>
		</g>
	</g>
	<g>
		<g>
			<g>
				<path class="s0" d="m59.2 51.7q-0.7 0-1.3-0.5-0.5-0.5-0.5-1.2v-15.1h-1.4q-1 0-1.5-0.6-0.5-0.5-0.5-1.3v-5.9q0-0.7 0.4-1.1 0.4-0.5 1.6-0.5h1.4v-0.3q0.3-4.3 0.8-7 0.5-2.6 2.1-4.4 0.8-1 2.2-2.3 1.5-1.3 4-2 1.8-0.5 3.1-0.6 1.2-0.2 1.6 1 0.4 0.9 0.8 1.9 0.3 1 0.7 2 0.8 2 0.6 3.2-0.3 1.2-1.8 2.2-1.6 0.7-2.1 2-0.4 1.2-0.5 4.1h2.2q1.2 0 1.4 0.5 0.3 0.5 0.3 1.2l-0.1 6.3q0 0.7-0.4 1.2-0.4 0.6-1.8 0.6h-1.5l0.2 14.9q0 0.6-0.5 1.1-0.5 0.6-1.3 0.6z"/>
			</g>
		</g>
	</g>
	<g>
		<g>
			<g>
				<path class="s0" d="m77.8 51.6q-0.8 0-1.4-0.5-0.6-0.5-0.6-1.3l-0.2-28.9q0-0.7 0.7-1.2 0.6-0.6 1.4-0.6h7.6q0.8 0 1.5 0.5 0.6 0.5 0.6 1.3l0.7 28.8q0.1 0.8-0.7 1.3-0.8 0.5-1.5 0.5zm-1.4-37.8q-0.7-1.9-0.1-3.5 0.6-1.6 2.1-2.6 1.5-1 3.4-1 2.3 0 4 1.5 1.7 1.4 1.7 3.6 0 1.7-1 3-1 1.3-2.4 1.7-2.4 0.9-4.6 0-2.2-0.8-3.1-2.7z"/>
			</g>
		</g>
	</g>
	<g>
		<g>
			<g>
				<path class="s0" d="m110.7 51.7q-0.7 0-1.2-0.7-0.6-0.7-0.6-1.6l0.1-14.3q-0.1-3.1-1.1-4.8-1-1.8-3.1-1-0.8 0.3-1.5 1-0.8 0.7-0.9 2.1l0.4 17.3q0.1 0.8-0.7 1.3-0.8 0.5-1.5 0.5l-8 0.1q-0.9 0-1.5-0.5-0.6-0.5-0.6-1.3l-0.1-28.3q0-0.7 0.6-1.3 0.7-0.5 1.5-0.5h7.5q1 0 1.5 0.5 4.5-0.9 8.1-0.5 3.6 0.4 5.9 1.8 2.1 1.2 3.3 2.6 1.2 1.4 1.6 3.3 0.5 1.9 0.6 4.5 0.1 2.6 0.1 6.2v11.3q0 1-0.6 1.6-0.5 0.7-1.2 0.7z"/>
			</g>
		</g>
	</g>
	<g>
		<g>
			<g>
				<path class="s0" d="m142.7 52.2q-1.9 0-1.6-2.5-4.8 2.9-9.8 2.2-2.8-0.4-4.5-1.6-1.7-1.3-2.4-2.9-0.8-1.7-0.9-3.4-0.1-1.8 0.2-3.2 0.4-2.4 2.2-4 1.8-1.6 4.3-2.5 2.5-0.9 5.1-1l5.8-0.3q-0.2-1.7-0.3-2.6-0.2-1-1-1.3-0.8-0.4-2.9-0.4-1 0-1.5 0.6-0.5 0.5-0.8 1.1-0.3 0.7-0.7 1.1-0.4 0.5-1.1 0.4l-6.3-0.8q-0.8-0.2-1.2-0.4-0.5-0.3-0.5-1 0-2.1 0.6-4 0.5-1.8 2.2-3.1 1.8-1.4 5.2-2.2 3.6-0.8 6.9-0.7 3.4 0 6.1 1.1 2.8 1 4.6 3.1 1.7 2 2.1 5.4 0.1 0.4 0.2 3.3 0 3 0.1 7.6 0 4.6 0 10.2 0.1 0.8-0.5 1.3-0.7 0.5-1.2 0.5zm-3.6-13.7q-1.8 0-2.7 1-0.8 0.9-0.8 2.1 0 1.3 1 2.2 0.9 0.9 2.7 0.9 1 0 1-0.8v-4.6q0-0.8-1.2-0.8z"/>
			</g>
		</g>
	</g>
	<g>
		<g>
			<g>
				<path class="s0" d="m156.7 52.1q-0.7-0.2-1-0.8-0.2-0.6-0.2-1.3v-6.7q0-0.9 0.9-1.2 0.9-0.3 2.1-0.3 1.3 0 2.6 0.1 1.3 0.1 2.2 0 1.5-0.1 2.1-0.8 0.5-0.6 0-1.4-0.4-0.8-1.9-1.4-4.4-1.6-6.4-3.5-1.9-1.8-1.9-5 0-2.5 0.6-4.4 0.7-2 2.7-3.5 1.8-1.5 4.6-1.9 2.7-0.4 5.2-0.5 0.7 0 2.2 0 1.5 0 3.2 0.1 1.6 0.1 2.9 0.3 1.3 0.2 1.6 0.5 0.3 0.3 0.4 1 0 0.6 0 2.2 0 1.5 0 4.6 0 1.7-1.9 1.7-1.1 0-2.4-0.1-1.3-0.1-2.4 0-1.2 0-1.8 0.3-1.1 0.4-1.3 1.4-0.1 0.9 1.3 1.6 0.8 0.4 2 0.9 1.1 0.4 2.3 0.9 3.3 1.5 4.5 4.2 1.3 2.7 0.4 5.9-0.4 1.4-1 2.7-0.7 1.3-1.9 2.3-2.5 1.9-7.7 2.1-5.2 0.3-12 0z"/>
			</g>
		</g>
	</g>
	<g>
		<g>
			<g>
				<path class="s1" d="m6.9 72.3q-2.1 0-2.3-1.9l0.7-0.1q0.1 0.8 0.5 1.1 0.4 0.3 1.1 0.3 0.6 0 1-0.3 0.3-0.3 0.3-0.8 0-0.3-0.1-0.5-0.2-0.2-0.5-0.3-0.3-0.1-0.7-0.2-0.6-0.1-1-0.3-0.4-0.2-0.6-0.5-0.3-0.4-0.3-1 0-0.5 0.3-0.9 0.2-0.4 0.7-0.6 0.4-0.2 1-0.2 0.7 0 1.2 0.4 0.5 0.4 0.6 1.2l-0.5 0.1q-0.2-0.6-0.5-0.9-0.3-0.2-0.9-0.2-0.5 0-0.9 0.3-0.3 0.3-0.3 0.8 0 0.6 0.3 0.8 0.4 0.3 1.1 0.4 0.6 0.1 1 0.3 0.4 0.2 0.6 0.5 0.2 0.3 0.2 0.8 0 0.5-0.3 0.9-0.2 0.4-0.7 0.6-0.4 0.2-1 0.2z"/>
			</g>
		</g>
	</g>
	<g>
		<g>
			<g>
				<path class="s1" d="m16.3 66.2v0.5h-2v5.5h-0.6v-5.5h-2v-0.5z"/>
			</g>
		</g>
	</g>
	<g>
		<g>
			<g>
				<path class="s1" d="m23.6 66.2h0.7v3.1q0 1.5-0.6 2.2-0.6 0.8-1.9 0.8-1.2 0-1.7-0.6-0.6-0.7-0.6-2.1v-3.4h0.6v3.4q0 1.1 0.4 1.6 0.4 0.5 1.3 0.5 1 0 1.4-0.6 0.4-0.6 0.4-1.8z"/>
			</g>
		</g>
	</g>
	<g>
		<g>
			<g>
				<path class="s1" d="m28.1 72.2v-6h1.6q3.5 0 3.5 3 0 0.9-0.4 1.6-0.4 0.7-1.2 1.1-0.7 0.3-1.7 0.3zm0.6-0.6h1.1q1.3 0 2-0.6 0.6-0.6 0.6-1.8 0-1.2-0.6-1.8-0.7-0.6-2.1-0.6h-1z"/>
			</g>
		</g>
	</g>
	<g>
		<g>
			<g>
				<path class="s1" d="m40.3 66.7h-2.8v2.2h2.7v0.5h-2.7v2.3h2.9v0.5h-3.6v-6h3.5z"/>
			</g>
		</g>
	</g>
	<g>
		<g>
			<g>
				<path class="s1" d="m48 66.2h0.6v6h-0.5l-3.6-4.9v4.9h-0.6v-6h0.6l3.5 4.9z"/>
			</g>
		</g>
	</g>
	<g>
		<g>
			<g>
				<path class="s1" d="m56.4 66.2v0.5h-2v5.5h-0.6v-5.5h-2v-0.5z"/>
			</g>
		</g>
	</g>
	<g>
		<g>
			<g>
			</g>
		</g>
	</g>
	<g>
		<g>
			<g>
				<path class="s1" d="m67.3 66.7h-2.6v2.3h2.6v0.5h-2.6v2.7h-0.7v-6h3.3z"/>
			</g>
		</g>
	</g>
	<g>
		<g>
			<g>
				<path class="s1" d="m70.6 72.2v-6h0.7v6z"/>
			</g>
		</g>
	</g>
	<g>
		<g>
			<g>
				<path class="s1" d="m79.2 66.2h0.6v6h-0.5l-3.5-4.9v4.9h-0.7v-6h0.6l3.5 4.9z"/>
			</g>
		</g>
	</g>
	<g>
		<g>
			<g>
				<path class="s1" d="m83.1 72.2l2.5-6h0.6l2.4 6h-0.7l-0.6-1.6h-2.9l-0.6 1.6zm1.5-2.2h2.5l-1.2-3z"/>
			</g>
		</g>
	</g>
	<g>
		<g>
			<g>
				<path class="s1" d="m96 66.2h0.6v6h-0.5l-3.6-4.9v4.9h-0.6v-6h0.6l3.5 4.9z"/>
			</g>
		</g>
	</g>
	<g>
		<g>
			<g>
				<path class="s1" d="m105.3 71.1q-0.4 0.6-0.9 0.9-0.6 0.3-1.4 0.3-0.8 0-1.4-0.4-0.7-0.3-1-1-0.3-0.7-0.3-1.6 0-0.9 0.3-1.7 0.4-0.7 1.1-1.1 0.6-0.4 1.5-0.4 0.7 0 1.2 0.3 0.6 0.3 0.9 0.8l-0.5 0.4q-0.5-0.9-1.6-0.9-0.7 0-1.2 0.3-0.5 0.4-0.8 0.9-0.2 0.6-0.2 1.4 0 1.1 0.5 1.8 0.6 0.6 1.5 0.6 1.2 0 1.8-1z"/>
			</g>
		</g>
	</g>
	<g>
		<g>
			<g>
				<path class="s1" d="m108.5 72.2v-6h0.6v6z"/>
			</g>
		</g>
	</g>
	<g>
		<g>
			<g>
				<path class="s1" d="m112.4 72.2l2.5-6h0.6l2.4 6h-0.7l-0.6-1.6h-2.9l-0.6 1.6zm1.5-2.2h2.5l-1.2-3z"/>
			</g>
		</g>
	</g>
	<g>
		<g>
			<g>
				<path class="s1" d="m121.2 72.2v-6h0.6v5.5h2.9l-0.1 0.5z"/>
			</g>
		</g>
	</g>
	<g>
		<g>
			<g>
			</g>
		</g>
	</g>
	<g>
		<g>
			<g>
				<path class="s1" d="m131.6 72.2l2.5-6h0.6l2.4 6h-0.7l-0.6-1.6h-2.9l-0.6 1.6zm1.5-2.2h2.5l-1.2-3z"/>
			</g>
		</g>
	</g>
	<g>
		<g>
			<g>
				<path class="s1" d="m142.2 72.3q-2 0-2.2-1.9l0.6-0.1q0.1 0.8 0.5 1.1 0.4 0.3 1.1 0.3 0.6 0 1-0.3 0.3-0.3 0.4-0.8-0.1-0.3-0.2-0.5-0.1-0.2-0.5-0.3-0.3-0.1-0.7-0.2-0.6-0.1-1-0.3-0.4-0.2-0.6-0.5-0.3-0.4-0.3-1 0-0.5 0.3-0.9 0.2-0.4 0.7-0.6 0.4-0.2 1-0.2 0.7 0 1.3 0.4 0.4 0.4 0.5 1.2l-0.5 0.1q-0.1-0.6-0.5-0.9-0.3-0.2-0.8-0.2-0.6 0-1 0.3-0.3 0.3-0.3 0.8 0 0.6 0.3 0.8 0.4 0.3 1.1 0.4 0.6 0.1 1 0.3 0.4 0.2 0.6 0.5 0.2 0.3 0.2 0.8 0 0.5-0.3 0.9-0.2 0.4-0.7 0.6-0.4 0.2-1 0.2z"/>
			</g>
		</g>
	</g>
	<g>
		<g>
			<g>
				<path class="s1" d="m149.5 72.3q-2.1 0-2.3-1.9l0.7-0.1q0.1 0.8 0.5 1.1 0.4 0.3 1.1 0.3 0.6 0 1-0.3 0.3-0.3 0.3-0.8 0-0.3-0.1-0.5-0.2-0.2-0.5-0.3-0.3-0.1-0.7-0.2-0.6-0.1-1-0.3-0.4-0.2-0.6-0.5-0.3-0.4-0.3-1 0-0.5 0.3-0.9 0.2-0.4 0.7-0.6 0.4-0.2 1-0.2 0.7 0 1.2 0.4 0.5 0.4 0.6 1.2l-0.5 0.1q-0.2-0.6-0.5-0.9-0.3-0.2-0.9-0.2-0.5 0-0.9 0.3-0.3 0.3-0.3 0.8 0 0.6 0.3 0.8 0.4 0.3 1.1 0.4 0.6 0.1 1 0.3 0.4 0.2 0.6 0.5 0.2 0.3 0.2 0.8 0 0.5-0.3 0.9-0.2 0.4-0.7 0.6-0.4 0.2-1 0.2z"/>
			</g>
		</g>
	</g>
	<g>
		<g>
			<g>
				<path class="s1" d="m155 72.2v-6h0.6v6z"/>
			</g>
		</g>
	</g>
	<g>
		<g>
			<g>
				<path class="s1" d="m161.3 72.3q-2 0-2.2-1.9l0.6-0.1q0.1 0.8 0.5 1.1 0.4 0.3 1.1 0.3 0.6 0 1-0.3 0.4-0.3 0.4-0.8 0-0.3-0.2-0.5-0.1-0.2-0.5-0.3-0.3-0.1-0.7-0.2-0.6-0.1-1-0.3-0.4-0.2-0.6-0.5-0.3-0.4-0.3-1 0-0.5 0.3-0.9 0.2-0.4 0.7-0.6 0.4-0.2 1-0.2 0.8 0 1.3 0.4 0.5 0.4 0.5 1.2l-0.5 0.1q-0.1-0.6-0.5-0.9-0.3-0.2-0.8-0.2-0.6 0-1 0.3-0.3 0.3-0.3 0.8 0 0.6 0.4 0.8 0.3 0.3 1 0.4 0.6 0.1 1 0.3 0.4 0.2 0.6 0.5 0.2 0.3 0.2 0.8 0 0.5-0.3 0.9-0.2 0.4-0.7 0.6-0.4 0.2-1 0.2z"/>
			</g>
		</g>
	</g>
	<g>
		<g>
			<g>
				<path class="s1" d="m170.7 66.2v0.5h-1.9v5.5h-0.7v-5.5h-2v-0.5z"/>
			</g>
		</g>
	</g>
	<g>
		<g>
			<g>
				<path class="s1" d="m173.3 72.2l2.5-6h0.6l2.4 6h-0.7l-0.6-1.6h-2.9l-0.6 1.6zm1.5-2.2h2.5l-1.2-3z"/>
			</g>
		</g>
	</g>
	<g>
		<g>
			<g>
				<path class="s1" d="m186.2 66.2h0.6v6h-0.5l-3.6-4.9v4.9h-0.6v-6h0.6l3.5 4.9z"/>
			</g>
		</g>
	</g>
	<g>
		<g>
			<g>
				<path class="s1" d="m195.5 71.1q-0.4 0.6-0.9 0.9-0.6 0.3-1.4 0.3-0.8 0-1.4-0.4-0.7-0.3-1-1-0.3-0.7-0.3-1.6 0-0.9 0.4-1.7 0.3-0.7 1-1.1 0.6-0.4 1.5-0.4 0.7 0 1.2 0.3 0.6 0.3 0.9 0.8l-0.5 0.4q-0.5-0.9-1.6-0.9-0.7 0-1.2 0.3-0.5 0.4-0.8 0.9-0.2 0.6-0.2 1.4 0 1.1 0.5 1.8 0.6 0.6 1.5 0.6 1.2 0 1.8-1z"/>
			</g>
		</g>
	</g>
	<g>
		<g>
			<g>
				<path class="s1" d="m202.2 66.7h-2.9v2.2h2.8v0.5h-2.8v2.3h3l-0.1 0.5h-3.5v-6h3.5z"/>
			</g>
		</g>
	</g>
</svg>